#tb 0: 1/14985
0,          0,          0,        0,    57600, 0x1f5c89b7
0,       1000,       1000,        0,    57600, 0xd2055aaf
0,       2000,       2000,        0,    57600, 0x22336052
0,       3000,       3000,        0,    57600, 0xf7135e2a
0,       4000,       4000,        0,    57600, 0xd9de126a
0,       5000,       5000,        0,    57600, 0xe5a9e1de
0,       6000,       6000,        0,    57600, 0x253f1702
0,       7000,       7000,        0,    57600, 0xcb8679c9
0,       8000,       8000,        0,    57600, 0x96cb5fa8
0,       9000,       9000,        0,    57600, 0xbe03528a
0,      10000,      10000,        0,    57600, 0x120a097d
0,      11000,      11000,        0,    57600, 0xaf562041
0,      12000,      12000,        0,    57600, 0x15b2d8c9
0,      13000,      13000,        0,    57600, 0x95f60e58
0,      14000,      14000,        0,    57600, 0x5ace5a6b
0,      15000,      15000,        0,    57600, 0x2f80b8e3
0,      16000,      16000,        0,    57600, 0x5c49c915
0,      17000,      17000,        0,    57600, 0xb91efe60
0,      18000,      18000,        0,    57600, 0xa80d29e8
0,      19000,      19000,        0,    57600, 0x6e72d03a
0,      20000,      20000,        0,    57600, 0x4f716a9e
0,      21000,      21000,        0,    57600, 0x3a43b9c9
0,      22000,      22000,        0,    57600, 0x65002db3
0,      23000,      23000,        0,    57600, 0x70edc765
0,      24000,      24000,        0,    57600, 0x9dc54abd
0,      25000,      25000,        0,    57600, 0xd17bda86
0,      26000,      26000,        0,    57600, 0xc5d2d458
0,      27000,      27000,        0,    57600, 0x32313c79
0,      28000,      28000,        0,    57600, 0x2e537e8d
0,      29000,      29000,        0,    57600, 0xe77d5d9e
0,      30000,      30000,        0,    57600, 0x9cc2599a
0,      31000,      31000,        0,    57600, 0x8a9be76e
0,      32000,      32000,        0,    57600, 0x47447eef
0,      33000,      33000,        0,    57600, 0xbf5f84fa
0,      34000,      34000,        0,    57600, 0xacd49c07
0,      35000,      35000,        0,    57600, 0xdc628975
0,      36000,      36000,        0,    57600, 0x97d7964e
0,      37000,      37000,        0,    57600, 0xd0a19b6b
0,      38000,      38000,        0,    57600, 0x5ea3d78c
0,      39000,      39000,        0,    57600, 0x39b59be0
0,      40000,      40000,        0,    57600, 0x6501a2d2
0,      41000,      41000,        0,    57600, 0x0ee7e36d
0,      42000,      42000,        0,    57600, 0x354ddd1d
0,      43000,      43000,        0,    57600, 0x9b8f22d3
0,      44000,      44000,        0,    57600, 0x0aadfb8c
0,      45000,      45000,        0,    57600, 0x322e2785
0,      46000,      46000,        0,    57600, 0x78a6467e
0,      47000,      47000,        0,    57600, 0x1757f3b1
0,      48000,      48000,        0,    57600, 0xe874ceb7
0,      49000,      49000,        0,    57600, 0xc40f9e4d
0,      50000,      50000,        0,    57600, 0x89f6a735
0,      51000,      51000,        0,    57600, 0xe3635393
0,      52000,      52000,        0,    57600, 0xdae585c7
0,      53000,      53000,        0,    57600, 0xf99baa60
0,      54000,      54000,        0,    57600, 0x28a8b1ee
0,      55000,      55000,        0,    57600, 0xcd5587f8
